<?xml version="1.0" encoding="UTF-8" standalone="no"?>
<!-- Created with Inkscape (http://www.inkscape.org/) -->

<svg
   width="94.416458mm"
   height="94.416466mm"
   viewBox="0 0 94.416458 94.416466"
   version="1.1"
   id="svg1"
   xmlns="http://www.w3.org/2000/svg"
   xmlns:svg="http://www.w3.org/2000/svg">
  <defs
     id="defs1" />
  <g
     id="layer1"
     transform="translate(-126.20626,-157.4271)">
    <path
       id="path9"
       style="stroke-width:0.264583"
       d="m 173.41319,157.42708 c -26.07204,0 -47.20694,21.1349 -47.20694,47.20694 0,9.62555 2.88392,18.57637 7.82898,26.04027 5.50615,5.06225 13.7242,7.08209 21.69428,4.93097 l -9.50639,-9.50692 a 1.7197916,1.7197916 0 0 1 0,-2.43189 1.7197916,1.7197916 0 0 1 1.21594,-0.50384 1.7197916,1.7197916 0 0 1 1.21647,0.50384 l 10.67118,10.67118 c 2.29794,-1.01091 4.3658,-2.32676 6.16706,-3.87211 l -9.21907,-9.21959 a 1.7197916,1.7197916 0 0 1 0,-2.4319 1.7197916,1.7197916 0 0 1 1.21595,-0.50384 1.7197916,1.7197916 0 0 1 1.21646,0.50384 l 9.23148,9.23148 c 1.53826,-1.75774 2.79041,-3.70905 3.72018,-5.77691 l -10.91251,-10.91251 a 1.7197916,1.7197916 0 0 1 0,-2.43241 1.7197916,1.7197916 0 0 1 1.21595,-0.50384 1.7197916,1.7197916 0 0 1 1.21594,0.50384 l 9.74153,9.74153 c 1.04987,-4.12407 0.86654,-8.51118 -0.79789,-12.63696 l -0.60564,-1.50275 c -2.48444,-6.15686 -2.22515,-13.01239 0.7276,-19.30683 2.93158,-6.24946 8.1546,-11.14673 14.70039,-13.78727 6.33942,-2.55587 13.24513,-2.7224 19.53163,-0.49196 -8.51694,-8.35554 -20.18796,-13.51236 -33.06258,-13.51236 z m 24.83776,15.39803 c -1.36892,-0.0431 -2.75706,0.0305 -4.1491,0.22634 l 10.34924,10.34872 a 1.71979,1.71979 0 0 1 0,2.4319 1.71979,1.71979 0 0 1 -2.43345,0 l -11.68559,-11.68766 a 1.71979,1.71979 0 0 1 -0.17466,-0.20464 c -0.64455,0.20133 -1.28678,0.4304 -1.92495,0.68781 v -0.003 c -1.75041,0.70593 -3.37443,1.58603 -4.85759,2.60914 l 18.74615,18.7446 a 1.71979,1.71979 0 0 1 0.002,2.43137 1.71979,1.71979 0 0 1 -2.43344,0 l -19.01693,-19.01486 c -1.71876,1.58723 -3.1716,3.39025 -4.32325,5.33508 a 1.71979,1.71979 0 0 1 0.5178,0.35553 l 11.68766,11.68559 a 1.71979,1.71979 0 0 1 0,2.43189 1.71979,1.71979 0 0 1 -2.43189,0 L 174.7976,187.88 c -1.94587,4.87139 -2.12764,10.31253 -0.0904,15.36237 l 0.60564,1.50276 c 2.48443,6.15685 2.22515,13.0124 -0.7276,19.30683 -2.93158,6.24946 -8.15461,11.14673 -14.7004,13.78727 -3.39196,1.3679 -6.94773,2.0531 -10.48256,2.0531 -3.07181,0 -6.12496,-0.52398 -9.04596,-1.56114 8.51693,8.35818 20.18486,13.51235 33.05948,13.51235 26.07205,0 47.20694,-21.1349 47.20694,-47.20694 0,-9.62554 -2.88392,-18.57638 -7.82898,-26.04027 -3.8563,-3.54541 -9.04291,-5.59821 -14.54278,-5.77122 z m -48.67042,37.39152 a 1.7197916,1.7197916 0 0 1 1.21595,0.50436 l 3.437,3.43958 a 1.7197916,1.7197916 0 0 1 -10e-4,2.43189 1.7197916,1.7197916 0 0 1 -2.43241,-10e-4 l -3.437,-3.43958 a 1.7197916,1.7197916 0 0 1 0.001,-2.4319 1.7197916,1.7197916 0 0 1 1.21646,-0.50332 z" />
  </g>
</svg>
