<svg width="16" height="16" viewBox="0 0 16 16" fill="none" xmlns="http://www.w3.org/2000/svg">
<path d="M8 8C6.9 8 5.95833 7.60833 5.175 6.825C4.39167 6.04167 4 5.1 4 4C4 2.9 4.39167 1.95833 5.175 1.175C5.95833 0.391667 6.9 0 8 0C9.1 0 10.0417 0.391667 10.825 1.175C11.6083 1.95833 12 2.9 12 4C12 5.1 11.6083 6.04167 10.825 6.825C10.0417 7.60833 9.1 8 8 8ZM0 16V13.2C0 12.6333 0.141667 12.1125 0.425 11.6375C0.708333 11.1625 1.1 10.8 1.6 10.55C2.6 10.05 3.6375 9.66667 4.7125 9.4C5.7875 9.13333 6.88333 9 8 9C9.11667 9 10.2125 9.13333 11.2875 9.4C12.3625 9.66667 13.4 10.05 14.4 10.55C14.9 10.8 15.2917 11.1625 15.575 11.6375C15.8583 12.1125 16 12.6333 16 13.2V16H0ZM2 14H14V13.2C14 13.0167 13.9583 12.85 13.875 12.7C13.7917 12.55 13.6667 12.4333 13.5 12.35C12.65 11.9167 11.7625 11.5833 10.8375 11.35C9.9125 11.1167 8.96667 11 8 11C7.03333 11 6.0875 11.1167 5.1625 11.35C4.2375 11.5833 3.35 11.9167 2.5 12.35C2.33333 12.4333 2.20833 12.55 2.125 12.7C2.04167 12.85 2 13.0167 2 13.2V14ZM8 6C8.55 6 9.02083 5.80417 9.4125 5.4125C9.80417 5.02083 10 4.55 10 4C10 3.45 9.80417 2.97917 9.4125 2.5875C9.02083 2.19583 8.55 2 8 2C7.45 2 6.97917 2.19583 6.5875 2.5875C6.19583 2.97917 6 3.45 6 4C6 4.55 6.19583 5.02083 6.5875 5.4125C6.97917 5.80417 7.45 6 8 6Z" fill="#9A9A9A"/>
</svg>
