<svg width="19" height="19" viewBox="0 0 19 19" fill="none" xmlns="http://www.w3.org/2000/svg">
<path d="M14.5 19C13.4 19 12.4583 18.6083 11.675 17.825C10.8917 17.0417 10.5 16.1 10.5 15C10.5 13.9 10.8917 12.9583 11.675 12.175C12.4583 11.3917 13.4 11 14.5 11C15.6 11 16.5417 11.3917 17.325 12.175C18.1083 12.9583 18.5 13.9 18.5 15C18.5 16.1 18.1083 17.0417 17.325 17.825C16.5417 18.6083 15.6 19 14.5 19ZM14.5 17C15.05 17 15.5208 16.8042 15.9125 16.4125C16.3042 16.0208 16.5 15.55 16.5 15C16.5 14.45 16.3042 13.9792 15.9125 13.5875C15.5208 13.1958 15.05 13 14.5 13C13.95 13 13.4792 13.1958 13.0875 13.5875C12.6958 13.9792 12.5 14.45 12.5 15C12.5 15.55 12.6958 16.0208 13.0875 16.4125C13.4792 16.8042 13.95 17 14.5 17ZM4.5 16C3.4 16 2.45833 15.6083 1.675 14.825C0.891667 14.0417 0.5 13.1 0.5 12C0.5 10.9 0.891667 9.95833 1.675 9.175C2.45833 8.39167 3.4 8 4.5 8C5.6 8 6.54167 8.39167 7.325 9.175C8.10833 9.95833 8.5 10.9 8.5 12C8.5 13.1 8.10833 14.0417 7.325 14.825C6.54167 15.6083 5.6 16 4.5 16ZM4.5 14C5.05 14 5.52083 13.8042 5.9125 13.4125C6.30417 13.0208 6.5 12.55 6.5 12C6.5 11.45 6.30417 10.9792 5.9125 10.5875C5.52083 10.1958 5.05 10 4.5 10C3.95 10 3.47917 10.1958 3.0875 10.5875C2.69583 10.9792 2.5 11.45 2.5 12C2.5 12.55 2.69583 13.0208 3.0875 13.4125C3.47917 13.8042 3.95 14 4.5 14ZM8.5 8C7.4 8 6.45833 7.60833 5.675 6.825C4.89167 6.04167 4.5 5.1 4.5 4C4.5 2.9 4.89167 1.95833 5.675 1.175C6.45833 0.391667 7.4 0 8.5 0C9.6 0 10.5417 0.391667 11.325 1.175C12.1083 1.95833 12.5 2.9 12.5 4C12.5 5.1 12.1083 6.04167 11.325 6.825C10.5417 7.60833 9.6 8 8.5 8ZM8.5 6C9.05 6 9.52083 5.80417 9.9125 5.4125C10.3042 5.02083 10.5 4.55 10.5 4C10.5 3.45 10.3042 2.97917 9.9125 2.5875C9.52083 2.19583 9.05 2 8.5 2C7.95 2 7.47917 2.19583 7.0875 2.5875C6.69583 2.97917 6.5 3.45 6.5 4C6.5 4.55 6.69583 5.02083 7.0875 5.4125C7.47917 5.80417 7.95 6 8.5 6Z" fill="#F5F5F5"/>
</svg>
